<svg width="166" height="36" viewBox="0 0 166 36" fill="none" xmlns="http://www.w3.org/2000/svg">
<g clip-path="url(#clip0_105_263)">
<path d="M18.2016 21.2529C18.2016 23.2332 17.5184 24.9651 16.0687 26.3769C14.6493 27.785 12.9263 28.4928 10.93 28.4928H3.63576V35.7026H0V24.8597H10.93C11.913 24.8597 12.7593 24.5058 13.4728 23.8017C14.1863 23.0977 14.5658 22.2581 14.5658 21.2529C14.5658 20.2476 14.2091 19.4081 13.4728 18.704C12.7631 18 11.9168 17.6461 10.93 17.6461H3.63576L0 14.013H10.93C12.9263 14.013 14.6455 14.717 16.0687 16.1288C17.4881 17.567 18.2016 19.2725 18.2016 21.2529Z" fill="white"/>
<path d="M23.3098 26.6743C23.3098 25.1307 23.2833 23.8017 23.1998 22.5819H25.3023L25.3858 25.1571H25.4958C26.0955 23.3951 27.5452 22.2845 29.1582 22.2845C29.4314 22.2845 29.6212 22.3108 29.8413 22.3673V24.6187C29.5946 24.566 29.3479 24.5359 29.0215 24.5359C27.3289 24.5359 26.1258 25.8084 25.7957 27.6005C25.7425 27.9243 25.6856 28.3045 25.6856 28.7111V35.7063H23.3098V26.6781V26.6743Z" fill="white"/>
<path d="M35.0293 18.8923C35.0558 19.7055 34.4562 20.3568 33.4998 20.3568C32.6535 20.3568 32.0501 19.7055 32.0501 18.8923C32.0501 18.0791 32.6801 17.4014 33.5529 17.4014C34.4258 17.4014 35.0293 18.0527 35.0293 18.8923ZM32.3537 35.6988V22.5781H34.7598V35.6988H32.3537Z" fill="white"/>
<path d="M38.4183 33.2591C39.128 33.7185 40.3842 34.2079 41.5873 34.2079C43.3369 34.2079 44.1566 33.342 44.1566 32.2577C44.1566 31.1207 43.4735 30.4957 41.6973 29.8444C39.3216 29.0048 38.1982 27.7022 38.1982 26.1322C38.1982 24.0163 39.9212 22.2807 42.76 22.2807C44.0997 22.2807 45.2724 22.6609 46.0124 23.0939L45.4128 24.8295C44.8929 24.5057 43.9365 24.069 42.7069 24.069C41.2875 24.069 40.4943 24.8822 40.4943 25.8574C40.4943 26.9416 41.2875 27.4311 43.0067 28.0786C45.3027 28.9446 46.4792 30.0853 46.4792 32.0356C46.4792 34.3397 44.6765 35.9661 41.5342 35.9661C40.0844 35.9661 38.7485 35.6122 37.8187 35.0701L38.4183 33.2554V33.2591Z" fill="white"/>
<path d="M49.5685 26.1322C49.5685 24.7768 49.5419 23.6662 49.4584 22.5819H51.5609L51.671 24.6978H51.7545C52.4908 23.4516 53.7204 22.2845 55.9064 22.2845C57.7091 22.2845 59.0753 23.3687 59.6484 24.9124H59.7015C60.1114 24.182 60.6314 23.6097 61.1779 23.2031C61.9711 22.6082 62.8439 22.2807 64.1039 22.2807C65.8535 22.2807 68.4494 23.4177 68.4494 27.9732V35.6988H66.1002V28.2707C66.1002 25.7482 65.1704 24.2309 63.231 24.2309C61.8648 24.2309 60.7983 25.2324 60.3885 26.3995C60.2784 26.7233 60.1987 27.16 60.1987 27.593V35.6988H57.8495V27.8377C57.8495 25.7519 56.9197 24.2309 55.0904 24.2309C53.5876 24.2309 52.4946 25.4244 52.1112 26.6179C51.9746 26.9718 51.9215 27.3784 51.9215 27.785V35.7026H49.5723V26.1322H49.5685Z" fill="white"/>
<path d="M105.422 17.8569V23.0412H94.4917L90.856 26.6743V35.6988H94.4917V26.6743H105.422V35.6988H109.058V14.2502L105.422 17.8569Z" fill="white"/>
<path d="M122.553 35.6988L122.363 34.046H122.28C121.544 35.0776 120.12 35.9962 118.234 35.9962C115.555 35.9962 114.189 34.1251 114.189 32.2276C114.189 29.0575 117.031 27.3219 122.139 27.3483V27.0772C122.139 25.9929 121.84 24.0427 119.134 24.0427C117.904 24.0427 116.621 24.4229 115.691 25.0178L115.145 23.444C116.238 22.74 117.824 22.2769 119.49 22.2769C123.536 22.2769 124.519 25.014 124.519 27.6457V32.5513C124.519 33.6883 124.572 34.8028 124.739 35.695H122.553V35.6988ZM122.196 29.0048C119.574 28.9521 116.595 29.4114 116.595 31.9603C116.595 33.5039 117.635 34.238 118.864 34.238C120.587 34.238 121.68 33.1537 122.06 32.0431C122.143 31.7984 122.196 31.5273 122.196 31.2826V29.0048Z" fill="white"/>
<path d="M129.111 22.5781L131.707 29.9536C132.143 31.147 132.5 32.2313 132.773 33.3156H132.857C133.157 32.2313 133.54 31.147 133.976 29.9536L136.546 22.5781H139.058L133.866 35.6988H131.57L126.542 22.5781H129.111Z" fill="white"/>
<path d="M142.39 29.5733C142.443 32.7998 144.523 34.1288 146.926 34.1288C148.649 34.1288 149.685 33.8314 150.588 33.4512L150.998 35.1604C150.151 35.5407 148.702 35.9736 146.599 35.9736C142.527 35.9736 140.094 33.3156 140.094 29.3587C140.094 25.4018 142.443 22.2845 146.299 22.2845C150.618 22.2845 151.764 26.0531 151.764 28.4664C151.764 28.9559 151.711 29.3324 151.681 29.5771H142.39V29.5733ZM149.442 27.864C149.468 26.3468 148.812 23.9862 146.106 23.9862C143.673 23.9862 142.607 26.2075 142.417 27.864H149.442Z" fill="white"/>
<path d="M154.74 26.1322C154.74 24.7768 154.713 23.6662 154.63 22.5819H156.763L156.899 24.7505H156.952C157.609 23.5043 159.138 22.2845 161.324 22.2845C163.157 22.2845 165.996 23.3687 165.996 27.8678V35.7026H163.59V28.1389C163.59 26.023 162.797 24.261 160.531 24.261C158.945 24.261 157.715 25.3717 157.305 26.7007C157.195 26.9981 157.142 27.4047 157.142 27.8113V35.6988H154.736V26.1284L154.74 26.1322Z" fill="white"/>
<path d="M81.6907 0L72.6734 8.94541L72.7 8.97176H78.5521L80.7419 6.79941V16.9496H72.3242V18.832H80.7419V28.9785L75.626 23.9071L72.6734 26.8362L81.6907 35.7779L99.7215 17.8908L81.6907 0ZM82.6395 6.79941L92.8674 16.9496H82.6395V6.79941ZM82.6395 28.9785V18.832H92.8674L82.6395 28.9785Z" fill="white"/>
<path d="M82.6319 18.8358L82.6281 28.9897L92.8674 18.832L82.6319 18.8358Z" fill="white"/>
</g>
<defs>
<clipPath id="clip0_105_263">
<rect width="166" height="36" fill="white"/>
</clipPath>
</defs>
</svg>
