<svg width="51" height="36" viewBox="0 0 51 36" fill="none" xmlns="http://www.w3.org/2000/svg">
<g clip-path="url(#clip0_105_408)">
<path d="M49.9499 5.63299C49.3618 3.43062 47.6394 1.69413 45.4549 1.10119C41.4639 0 25.5001 0 25.5001 0C25.5001 0 9.53628 0 5.54533 1.05883C3.40281 1.65178 1.63839 3.43062 1.05025 5.63299C0 9.65655 0 18.0001 0 18.0001C0 18.0001 0 26.3861 1.05025 30.3673C1.63839 32.5697 3.3608 34.3062 5.54533 34.8991C9.57829 36.0003 25.5001 36.0003 25.5001 36.0003C25.5001 36.0003 41.4639 36.0003 45.4549 34.9415C47.6394 34.3485 49.3618 32.612 49.9499 30.4097C51.0002 26.3861 51.0002 18.0425 51.0002 18.0425C51.0002 18.0425 51.0422 9.65655 49.9499 5.63299Z" fill="white"/>
<path d="M33.692 18.0003L20.4169 10.292V25.7086L33.692 18.0003Z" fill="black"/>
</g>
<defs>
<clipPath id="clip0_105_408">
<rect width="51" height="36" fill="white"/>
</clipPath>
</defs>
</svg>
