<svg width="39" height="39" viewBox="0 0 39 39" fill="none" xmlns="http://www.w3.org/2000/svg">
<mask id="mask0_105_404" style="mask-type:alpha" maskUnits="userSpaceOnUse" x="0" y="0" width="39" height="39">
<rect width="38.5815" height="38.5815" fill="#D9D9D9"/>
</mask>
<g mask="url(#mask0_105_404)">
<path d="M19.2908 1.60742L33.8393 10.2883C34.3215 10.583 34.6966 10.9849 34.9645 11.4939C35.2325 12.003 35.3664 12.5389 35.3664 13.1015V30.5436C35.3664 31.4277 35.0516 32.1846 34.422 32.8143C33.7924 33.4439 33.0355 33.7587 32.1513 33.7587H6.43028C5.54612 33.7587 4.78922 33.4439 4.15959 32.8143C3.52996 32.1846 3.21515 31.4277 3.21515 30.5436V13.1015C3.21515 12.5389 3.34911 12.003 3.61704 11.4939C3.88497 10.9849 4.26007 10.583 4.74234 10.2883L19.2908 1.60742ZM19.2908 20.3355L31.8298 12.8604L19.2908 5.3852L6.75179 12.8604L19.2908 20.3355ZM19.2908 24.1133L6.43028 16.397V30.5436H32.1513V16.397L19.2908 24.1133Z" fill="black"/>
</g>
</svg>
