<svg width="36" height="36" viewBox="0 0 36 36" fill="none" xmlns="http://www.w3.org/2000/svg">
<g clip-path="url(#clip0_105_414)">
<path d="M18 3.47825C22.7296 3.47825 23.2898 3.49632 25.1578 3.58154C26.8848 3.66036 27.8227 3.94885 28.4469 4.19143C29.2163 4.47538 29.9122 4.92816 30.4836 5.51646C31.0719 6.08783 31.5246 6.78377 31.8086 7.55314C32.0512 8.1773 32.3397 9.1152 32.4185 10.8422C32.5037 12.7101 32.5218 13.2702 32.5218 18C32.5218 22.7298 32.5037 23.2898 32.4185 25.1578C32.3397 26.8849 32.0511 27.8227 31.8086 28.4469C31.5139 29.2108 31.0626 29.9046 30.4836 30.4836C29.9046 31.0626 29.2108 31.5139 28.4469 31.8086C27.8227 32.0512 26.8848 32.3398 25.1578 32.4185C23.2903 32.5037 22.7301 32.5218 18 32.5218C13.2699 32.5218 12.7099 32.5037 10.8422 32.4185C9.11517 32.3397 8.17734 32.0511 7.55311 31.8086C6.78374 31.5247 6.0878 31.0719 5.51644 30.4836C4.92813 29.9122 4.47536 29.2163 4.1914 28.4469C3.94882 27.8228 3.66026 26.8849 3.58151 25.1578C3.49629 23.2901 3.47822 22.7298 3.47822 18C3.47822 13.2702 3.49629 12.7102 3.58151 10.8422C3.66033 9.1152 3.94882 8.17737 4.1914 7.55314C4.47539 6.78373 4.92821 6.08776 5.51658 5.51639C6.08794 4.92809 6.78389 4.47532 7.55325 4.19136C8.17741 3.94878 9.11531 3.66021 10.8423 3.58146C12.7102 3.49625 13.2704 3.47818 18.0001 3.47818M18.0001 0.286621C13.1895 0.286621 12.5861 0.307012 10.6971 0.393215C8.81163 0.479277 7.52407 0.778668 6.39738 1.21657C5.21547 1.66135 4.1448 2.35858 3.26004 3.25964C2.35877 4.14435 1.66134 5.21503 1.21641 6.39699C0.778851 7.52375 0.47946 8.81131 0.39375 10.6967C0.307195 12.5858 0.286804 13.1892 0.286804 17.9998C0.286804 22.8105 0.307195 23.4139 0.39375 25.3029C0.479812 27.1883 0.779203 28.4759 1.21711 29.6026C1.66188 30.7845 2.35911 31.8552 3.26018 32.7399C4.14494 33.641 5.21561 34.3382 6.39752 34.783C7.52428 35.2209 8.81184 35.5203 10.6972 35.6063C12.5865 35.6926 13.1897 35.7129 18.0003 35.7129C22.8109 35.7129 23.4143 35.6926 25.3034 35.6063C27.1888 35.5203 28.4764 35.2209 29.603 34.783C30.7797 34.3279 31.8483 33.632 32.7404 32.7399C33.6325 31.8478 34.3284 30.7792 34.7835 29.6026C35.2214 28.4758 35.5207 27.1883 35.6068 25.3029C35.693 23.4136 35.7134 22.8104 35.7134 17.9998C35.7134 13.1892 35.693 12.5858 35.6068 10.6967C35.5207 8.81131 35.2214 7.52375 34.7835 6.39706C34.3387 5.21515 33.6415 4.14448 32.7404 3.25971C31.8556 2.35847 30.7849 1.66109 29.6028 1.21622C28.4761 0.778668 27.1885 0.479277 25.3031 0.393566C23.4141 0.307012 22.8106 0.286621 18 0.286621H18.0001Z" fill="black"/>
<path d="M18 8.90381C16.201 8.90381 14.4423 9.43728 12.9465 10.4368C11.4507 11.4362 10.2848 12.8568 9.59639 14.5189C8.90793 16.181 8.7278 18.0099 9.07877 19.7743C9.42974 21.5388 10.2961 23.1595 11.5681 24.4316C12.8402 25.7037 14.461 26.57 16.2254 26.921C17.9899 27.272 19.8188 27.0918 21.4809 26.4034C23.1429 25.7149 24.5635 24.5491 25.563 23.0532C26.5625 21.5574 27.0959 19.7988 27.0959 17.9998C27.0959 15.5874 26.1376 13.2738 24.4318 11.568C22.726 9.86213 20.4124 8.90381 18 8.90381ZM18 23.9041C16.8322 23.9041 15.6907 23.5578 14.7197 22.909C13.7488 22.2603 12.992 21.3381 12.5451 20.2592C12.0982 19.1804 11.9813 17.9932 12.2091 16.8479C12.437 15.7025 12.9993 14.6505 13.8251 13.8248C14.6508 12.999 15.7029 12.4367 16.8482 12.2089C17.9935 11.9811 19.1807 12.098 20.2596 12.5449C21.3384 12.9918 22.2606 13.7485 22.9093 14.7195C23.5581 15.6905 23.9044 16.832 23.9044 17.9998C23.9044 19.5657 23.2823 21.0675 22.175 22.1748C21.0677 23.2821 19.5659 23.9041 18 23.9041Z" fill="black"/>
<path d="M27.4553 10.67C28.6292 10.67 29.5809 9.7184 29.5809 8.54449C29.5809 7.37059 28.6292 6.41895 27.4553 6.41895C26.2814 6.41895 25.3298 7.37059 25.3298 8.54449C25.3298 9.7184 26.2814 10.67 27.4553 10.67Z" fill="black"/>
</g>
<defs>
<clipPath id="clip0_105_414">
<rect width="36" height="36" fill="white"/>
</clipPath>
</defs>
</svg>
